<?xml version="1.0" standalone="no"?>
<!DOCTYPE svg PUBLIC "-//W3C//DTD SVG 20010904//EN"
 "http://www.w3.org/TR/2001/REC-SVG-20010904/DTD/svg10.dtd">
<svg version="1.0" xmlns="http://www.w3.org/2000/svg"
 width="942.000000pt" height="1280.000000pt" viewBox="0 0 942.000000 1280.000000"
 preserveAspectRatio="xMidYMid meet">
<metadata>
Created by potrace 1.15, written by Peter Selinger 2001-2017
</metadata>
<g transform="translate(0.000000,1280.000000) scale(0.100000,-0.100000)"
fill="#000000" stroke="none">
<path d="M4787 12785 c-49 -8 -121 -24 -161 -35 -60 -17 -81 -18 -127 -10
-171 32 -407 30 -572 -4 -574 -119 -988 -615 -1116 -1334 -25 -139 -45 -400
-39 -507 5 -73 3 -83 -20 -112 -88 -117 -62 -306 65 -474 37 -49 57 -89 77
-155 46 -146 95 -272 158 -401 32 -68 57 -126 55 -130 -3 -5 -10 -67 -17 -139
-14 -162 -2 -317 36 -460 18 -67 29 -141 35 -229 8 -146 28 -224 90 -346 75
-150 245 -341 381 -430 l58 -37 -118 -42 c-256 -93 -415 -163 -485 -212 -15
-11 -40 -21 -55 -23 -15 -2 -52 -6 -82 -10 -76 -8 -167 -39 -228 -78 -28 -18
-131 -109 -229 -203 -98 -94 -212 -200 -253 -235 -41 -35 -87 -77 -101 -93
l-26 -30 -149 84 c-434 243 -808 508 -1234 874 -58 50 -108 95 -112 100 -17
24 -20 -40 -15 -257 6 -263 23 -413 97 -865 28 -167 50 -311 50 -320 0 -10
-16 -26 -36 -37 -20 -11 -47 -38 -62 -64 -23 -39 -27 -60 -30 -142 -4 -83 17
-280 34 -324 3 -8 -8 -15 -33 -19 -58 -11 -134 -49 -171 -85 -54 -55 -67 -87
-67 -176 0 -101 30 -172 108 -250 l54 -54 -29 -28 c-37 -35 -62 -119 -53 -176
12 -75 64 -168 129 -232 71 -69 196 -139 268 -149 45 -7 48 -9 54 -43 11 -60
-3 -577 -26 -921 l-21 -322 32 -28 c136 -117 388 -228 699 -307 135 -35 151
-48 22 -18 l-23 5 25 -38 c14 -22 29 -43 34 -49 4 -5 18 -26 32 -45 13 -19 27
-37 30 -40 3 -3 27 -32 55 -65 57 -68 380 -395 470 -474 33 -30 78 -70 101
-90 65 -58 96 -84 144 -121 25 -19 47 -37 50 -40 3 -3 21 -17 40 -30 19 -13
37 -27 40 -30 3 -4 95 -66 205 -139 110 -72 205 -135 211 -140 5 -5 21 -14 34
-21 13 -7 29 -16 34 -21 23 -18 559 -371 623 -410 102 -62 338 -175 425 -203
261 -86 537 -80 776 15 12 5 32 13 45 18 141 57 524 250 675 340 29 17 57 31
62 31 6 0 10 4 10 9 0 5 8 11 18 14 15 5 60 30 87 49 5 5 46 31 90 60 44 29
82 55 85 58 3 3 21 17 40 30 19 13 37 27 40 30 3 3 21 17 42 32 20 15 42 33
50 40 7 7 38 33 68 58 30 25 66 56 80 71 39 40 326 315 420 403 47 43 99 85
115 92 40 18 25 17 -47 -2 -33 -8 -62 -13 -65 -11 -8 9 136 39 148 31 7 -4 10
-3 6 3 -16 26 987 264 1282 304 l93 13 -6 81 c-4 44 -11 136 -17 205 -5 69
-12 425 -16 791 l-6 666 42 6 c59 8 185 82 252 148 60 59 102 135 121 218 14
64 -3 131 -48 181 l-32 36 53 53 c80 77 110 146 110 246 0 69 -4 86 -28 127
-40 68 -121 120 -209 134 -27 5 -38 11 -34 20 16 42 38 250 34 329 -5 114 -35
176 -101 206 -54 24 -90 24 -169 -1 -34 -11 -65 -20 -67 -20 -12 0 12 228 39
369 23 123 28 166 19 172 -36 22 -380 28 -564 9 -169 -17 -373 -48 -566 -85
-96 -19 -180 -35 -185 -35 -6 0 -18 17 -28 38 -34 72 -117 171 -259 308 -78
77 -160 160 -182 184 -48 55 -246 204 -375 283 -52 32 -126 83 -165 113 -81
64 -254 153 -349 180 -36 10 -66 21 -66 24 0 3 26 11 58 18 92 21 214 85 283
150 147 135 229 347 235 602 3 140 13 230 26 230 11 0 145 -79 248 -146 75
-49 75 -49 155 -48 125 2 279 67 495 210 175 116 303 124 499 31 110 -51 153
-58 186 -27 46 43 29 107 -62 235 -94 133 -147 182 -247 230 -50 24 -158 67
-240 95 -216 75 -231 83 -458 268 -127 103 -205 141 -340 167 l-27 5 44 72
c53 86 95 183 130 303 14 48 38 110 54 136 65 104 92 196 92 307 0 67 -4 85
-35 147 -29 58 -35 85 -41 160 -29 409 -159 787 -361 1052 -77 100 -245 259
-345 325 -166 111 -352 189 -544 229 -123 26 -371 33 -488 14z"/>
</g>
</svg>
