<?xml version="1.0" encoding="iso-8859-1"?>
<!-- Generator: Adobe Illustrator 19.0.0, SVG Export Plug-In . SVG Version: 6.00 Build 0)  -->
<!-- License: CC0. Made by SVG Repo: https://www.svgrepo.com/svg/269407/wool -->
<svg version="1.1" id="Layer_1" xmlns="http://www.w3.org/2000/svg" xmlns:xlink="http://www.w3.org/1999/xlink" x="0px" y="0px"
	 viewBox="0 0 512 512" style="enable-background:new 0 0 512 512;" xml:space="preserve">
<g>
	<g>
		<path d="M291.697,464.309c-10.291,0-19.078,6.553-22.413,15.705h-13.128v15.67h12.921c3.16,9.469,12.103,16.316,22.62,16.316
			c13.148,0,23.845-10.697,23.845-23.846C315.543,475.006,304.844,464.309,291.697,464.309z M291.697,496.33
			c-4.508,0-8.175-3.669-8.175-8.176c0-4.508,3.668-8.175,8.175-8.175s8.175,3.668,8.175,8.175
			C299.872,492.662,296.205,496.33,291.697,496.33z"/>
	</g>
</g>
<g>
	<g>
		<path d="M476.147,408.271H107.902c-6.715,0-12.178-5.462-12.178-12.178c0-6.715,5.464-12.177,12.178-12.177h344.229
			c15.355,0,27.847-12.493,27.847-27.848s-12.492-27.848-27.847-27.848H288.021c-4.508,0-8.175-3.668-8.175-8.175
			s3.668-8.175,8.175-8.175h28.018c15.355,0,27.848-12.493,27.848-27.848s-12.493-27.848-27.848-27.848H199.217
			c43.148-22.805,72.623-68.146,72.623-120.25C271.841,60.974,210.867,0,135.92,0C60.974,0,0.001,60.974,0.001,135.92
			s60.974,135.92,135.92,135.92h180.12c6.716,0,12.178,5.462,12.178,12.178s-5.462,12.178-12.178,12.178h-28.018
			c-13.148,0-23.845,10.697-23.845,23.845c0,13.148,10.697,23.845,23.845,23.845h164.11c6.715,0,12.177,5.462,12.177,12.178
			s-5.462,12.178-12.177,12.178h-344.23c-15.355,0-27.848,12.492-27.848,27.847s12.493,27.848,27.848,27.848h368.244
			c11.129,0,20.184,9.055,20.184,20.184s-9.055,20.184-20.184,20.184h-44.029c-13.149,0-23.846,10.696-23.846,23.845
			c0,4.508-3.668,8.176-8.175,8.176h-32.02v15.67h32.02c13.148,0,23.845-10.697,23.845-23.846c0-4.508,3.669-8.175,8.176-8.175
			h44.029c19.77,0,35.853-16.083,35.853-35.853S495.917,408.271,476.147,408.271z M215.415,45.776
			c2.755,2.432,5.4,4.986,7.922,7.658l-7.922,7.922V45.776z M192.432,29.803c2.491,1.332,4.93,2.75,7.313,4.249v42.975l-7.313,7.313
			V29.803z M168.406,20.131c2.829,0.795,5.616,1.691,8.357,2.684v77.193l-3.934,3.934h-4.423V20.131z M143.334,15.905
			c3.168,0.193,6.303,0.511,9.402,0.946v87.091h-9.402V15.905z M119.307,16.823c2.758-0.382,5.544-0.673,8.357-0.864v87.983h-8.357
			V16.823z M96.325,22.375c2.404-0.841,4.842-1.61,7.313-2.299v83.866h-7.313V22.375z M72.298,33.925
			c2.716-1.7,5.502-3.297,8.357-4.78v74.798h-8.357V33.925z M47.227,54.807c2.964-3.238,6.104-6.312,9.402-9.211v58.346h-9.402
			V54.807z M31.557,76.233v27.709H19.994C22.698,94.153,26.606,84.858,31.557,76.233z M16.781,119.612h140.378l-8.357,8.357H15.94
			C16.125,125.156,16.405,122.37,16.781,119.612z M15.924,143.639h117.208l-8.357,8.357H16.747
			C16.377,149.238,16.104,146.451,15.924,143.639z M19.931,167.665h89.174l-8.357,8.357H22.555
			C21.583,173.28,20.706,170.494,19.931,167.665z M34.243,200.049c-1.718-2.714-3.328-5.502-4.829-8.357h55.665l-8.357,8.357H34.243
			z M53.435,223.336c-2.573-2.429-5.036-4.971-7.388-7.617h15.004L53.435,223.336z M65.558,233.374L233.374,65.558
			c1.386,1.915,2.721,3.868,3.995,5.866L71.424,237.368C69.427,236.094,67.473,234.76,65.558,233.374z M85.758,245.195
			L245.195,85.758c1.048,2.272,2.026,4.583,2.932,6.929L92.687,248.127C90.341,247.22,88.031,246.242,85.758,245.195z M118,254.834
			c-2.802-0.421-5.572-0.941-8.308-1.552l143.589-143.587c0.611,2.736,1.131,5.504,1.552,8.306L118,254.834z M138.863,256.133
			l117.271-117.271c-0.087,3.571-0.336,7.1-0.728,10.587L149.451,255.405C145.963,255.798,142.434,256.048,138.863,256.133z
			 M248.289,178.728c-12.203,31.924-37.636,57.357-69.561,69.561L248.289,178.728z"/>
	</g>
</g>
<g>
	<g>
		<rect x="232.131" y="481.059" width="15.67" height="15.67"/>
	</g>
</g>
<g>
	<g>
		<rect x="0.218" y="480.014" width="223.554" height="15.67"/>
	</g>
</g>
<g>
	<g>
		<path d="M54.376,440.318c-3.242-9.323-12.112-16.036-22.526-16.036c-13.148,0-23.845,10.697-23.845,23.846
			c0,13.148,10.697,23.845,23.845,23.845c10.396,0.001,19.253-6.688,22.509-15.985h9.581v-15.67H54.376z M31.852,456.304
			c-4.509,0-8.175-3.668-8.175-8.175s3.668-8.176,8.175-8.176c4.508,0,8.176,3.669,8.176,8.176S36.36,456.304,31.852,456.304z"/>
	</g>
</g>
<g>
	<g>
		<rect x="72.3" y="441.362" width="15.67" height="15.67"/>
	</g>
</g>
<g>
	<g>
		<rect x="96.327" y="440.318" width="223.554" height="15.67"/>
	</g>
</g>
</svg>
