<?xml version="1.0" encoding="iso-8859-1"?>
<!-- Generator: Adobe Illustrator 19.0.0, SVG Export Plug-In . SVG Version: 6.00 Build 0)  -->
<!-- License: CC0. Made by SVG Repo: https://www.svgrepo.com/svg/35711/plants -->
<svg version="1.1" id="Capa_1" xmlns="http://www.w3.org/2000/svg" xmlns:xlink="http://www.w3.org/1999/xlink" x="0px" y="0px"
	 viewBox="0 0 492.4 492.4" style="enable-background:new 0 0 492.4 492.4;" xml:space="preserve">
<g>
	<path d="M471.4,245.294h-41l22.3-25c7.3-8.3,6.2-21.9-2.1-29.1c-8.3-7.3-21.9-6.2-29.1,2.1l-15.6,17.5v-40.4
		c0-11.4-9.4-20.8-20.8-20.8s-20.8,9.4-20.8,20.8v87l-25,28v-41.1c0-11.4-9.4-20.8-20.8-20.8s-20.8,9.4-20.8,20.8v87.8l-28.8,32.3
		c-2.4-15.1-5.5-52.5-5.5-56.6c-1-17.7-3.1-37.5,2.1-51c2.1-6.2,14.6-49.9,20.8-59.3c9.2-13.2,32.4-19.4,54.1-44.7
		c13.4-15.7,19.8-32.3,18.7-47.9c-1-11.4-10.4-19.8-21.9-18.7s-19.8,10.4-18.7,21.9c0,4.2-1.6,10.7-13.2,20.8
		c-13-6.4-2.2-32.8-29.5-71.8c-6.5-9.2-18.7-12.5-28.1-6.2s-12.5,18.7-6.2,29.1c23.7,30.1,7.7,50.9,31.9,73.5
		c-7.1,4.8-14.7,10.6-21,18.7c-7.7-7.9-11.9-24.5-14-36c-3.1-14.6-6.2-30.2-14.6-43.7c-6.2-10.4-18.7-13.5-28.1-7.3
		c-10.4,6.2-13.5,18.7-7.3,28.1c8.7,13.9,10.7,68.1,40.6,96.8c2.1,5.2,2.1,11.4,0,16.6c-1.1,2.8-16.2,43.4-8.3,83.2
		c1,4.2,4.1,47.3,6.7,64.6l-36.8-41.4v-86.7c0-11.4-9.4-20.8-20.8-20.8s-20.8,9.4-20.8,20.8v39.9l-22.9-25.7v-87.1
		c0-11.4-9.4-20.8-20.8-20.8s-20.8,9.4-20.8,20.8v40.3l-14.6-16.4c-8.3-9.4-20.8-9.4-29.1-2.1c-9.4,8.3-9.4,20.8-2.1,29.1l20.5,22.9
		H20.8c-11.4,0-20.8,9.4-20.8,20.8s9.4,20.8,20.8,20.8h75.4l27.9,31.2H85.3c-11.4,0-20.8,9.4-20.8,20.8s9.4,20.8,20.8,20.8h76.2
		l21.1,23.6c-12.1,6.4-22.7,17.1-28.6,30.5c-5.2,10.4-1,21.9,9.4,27.1c2.1,1,18.6,6.6,26-8.3c3.1-6.2,8.3-11.4,14.6-13.5
		c34.8-9,88.4-3.1,135.3,11.4c11.4,3.1,22.9-3.1,26-13.5c3.1-11.4-3.1-22.9-13.5-26c-15.4-4.9-29.4-8.7-42.9-11.5l18.5-20.7h76.5
		c11.4,0,20.8-9.4,21.9-20.8c0-11.4-9.4-20.8-20.8-20.8h-40.4l28.8-32.3h77.1c11.4,0,21.9-9.4,21.9-20.8
		C492.2,254.694,482.8,245.294,471.4,245.294z"/>
</g>
</svg>
