<svg xmlns="http://www.w3.org/2000/svg" viewBox="0 0 490 490" xml:space="preserve"><path d="M427.978 106.769C427.978 47.892 380.086 0 321.209 0S214.44 47.892 214.44 106.769c0 55.434 42.455 101.123 96.561 106.278v256.536H62.022V490h304.745v-20.417h-35.35V213.047c54.105-5.155 96.561-50.844 96.561-106.278m-106.769 86.352c-47.613 0-86.352-38.739-86.352-86.352 0-47.612 38.74-86.352 86.352-86.352s86.352 38.741 86.352 86.352c0 47.613-38.741 86.352-86.352 86.352"/><path d="M311 27.426h20.417v19.858H311zm0 138.829h20.417v19.858H311zm69.694-69.694h19.858v20.417h-19.858zm-138.829 0h19.858v20.417h-19.858zm85.315 18.483-44.053 31.78-11.943-16.547 44.053-31.782zM99.387 448.818H259.67a10.203 10.203 0 0 0 10.208-10.208V299.541c0-1.257-.383-4.476-2.471-6.651l-.022-.028-29.548-34.124a10.2 10.2 0 0 0-7.717-3.529H128.935c-2.96 0-5.782 1.286-7.715 3.529l-29.55 34.124-.028.036a10.12 10.12 0 0 0-2.464 6.643V438.61a10.203 10.203 0 0 0 10.209 10.208m34.214-173.193h91.854l11.873 13.708h-115.6zm-24.006 34.125h139.867v118.652H109.595z"/></svg>