<?xml version="1.0" encoding="utf-8"?><!-- Uploaded to: SVG Repo, www.svgrepo.com, Generator: SVG Repo Mixer Tools -->
<svg fill="#000000" width="800px" height="800px" viewBox="0 0 24 24" xmlns="http://www.w3.org/2000/svg" id="winter" class="icon glyph"><path d="M20.41,12l1.3-1.29a1,1,0,0,0-1.42-1.42L18.59,11H15.87a4.05,4.05,0,0,0-.42-1l1.91-1.92h2.42a1,1,0,0,0,0-2H18V4.22a1,1,0,1,0-2,0V6.64L14,8.55a4.05,4.05,0,0,0-1-.42V5.41l1.71-1.7a1,1,0,1,0-1.42-1.42L12,3.59l-1.29-1.3A1,1,0,0,0,9.29,3.71L11,5.41V8.13a4.05,4.05,0,0,0-1,.42L8.05,6.64V4.22a1,1,0,0,0-2,0V6.05H4.22a1,1,0,0,0,0,2H6.64L8.55,10a4.05,4.05,0,0,0-.42,1H5.41L3.71,9.29a1,1,0,0,0-1.42,1.42L3.59,12l-1.3,1.29a1,1,0,0,0,0,1.42,1,1,0,0,0,1.42,0L5.41,13H8.13a4.05,4.05,0,0,0,.42,1L6.64,16H4.22a1,1,0,1,0,0,2H6.05v1.83a1,1,0,0,0,2,0V17.36L10,15.45a4.05,4.05,0,0,0,1,.42v2.72l-1.71,1.7a1,1,0,0,0,1.42,1.42L12,20.41l1.29,1.3a1,1,0,0,0,1.42,0,1,1,0,0,0,0-1.42L13,18.59V15.87a4.05,4.05,0,0,0,1-.42L16,17.36v2.42a1,1,0,0,0,2,0V18h1.83a1,1,0,0,0,0-2H17.36L15.45,14a4.05,4.05,0,0,0,.42-1h2.72l1.7,1.71a1,1,0,0,0,1.42,0,1,1,0,0,0,0-1.42Zm-7,1.39,0,0,0,0a2.13,2.13,0,0,1-2.78,0l0,0,0,0a2,2,0,0,1,0-2.78l0,0,0,0a2.13,2.13,0,0,1,2.78,0l0,0,0,0a2,2,0,0,1,0,2.78Z"></path></svg>